# xmcd
#
# Track frame offsets:
#	150
#	8197
#	26228
#	46986
#	63207
#	84955
#	103292
#	123274
#	142970
#	162905
#
# Disc length: 2388 seconds
#
# Revision: 9
# Processed by: cddbd v1.5.2PL0 Copyright (c) Steve Scherf et al.
# Submitted via: Jack! The Knife 20 Magnifico
#
DISCID=7b09520a
DTITLE=Saxon - Sacrifice
DYEAR=2013
DGENRE=Heavy Metal
TTITLE0=Procession
TTITLE1=Sacrifice
TTITLE2=Made In Belfast
TTITLE3=Warriors Of The Road
TTITLE4=Guardians Of The Tomb
TTITLE5=Stand Up And Fight
TTITLE6=Walking The Steel
TTITLE7=Night Of The Wolf
TTITLE8=Wheels Of Terror
TTITLE9=Standing In A Queue
EXTD=Andy Sneap
EXTT0=Byford, Quinn, Scarratt, Carter, Glockler
EXTT1=Byford, Quinn, Scarratt, Carter, Glockler
EXTT2=Byford, Quinn, Scarratt, Carter, Glockler
EXTT3=Byford, Quinn, Scarratt, Carter, Glockler
EXTT4=Byford, Quinn, Scarratt, Carter, Glockler
EXTT5=Byford, Quinn, Scarratt, Carter, Glockler
EXTT6=Byford, Quinn, Scarratt, Carter, Glockler
EXTT7=Byford, Quinn, Scarratt, Carter, Glockler
EXTT8=Byford, Quinn, Scarratt, Carter, Glockler
EXTT9=Byford, Quinn, Scarratt, Carter, Glockler
PLAYORDER=
